<?xml version="1.0" encoding="utf-8"?>
<!-- Generator: Adobe Illustrator 25.2.3, SVG Export Plug-In . SVG Version: 6.00 Build 0)  -->
<svg version="1.1" id="Layer_1" xmlns="http://www.w3.org/2000/svg" xmlns:xlink="http://www.w3.org/1999/xlink" x="0px" y="0px"
	 viewBox="0 0 100 100" style="enable-background:new 0 0 100 100;" xml:space="preserve">
<style type="text/css">
	.st0{fill-rule:evenodd;clip-rule:evenodd;fill:url(#SVGID_1_);}
	.st1{fill-rule:evenodd;clip-rule:evenodd;fill:url(#SVGID_2_);}
	.st2{fill:url(#SVGID_3_);}
</style>
<g>
	
		<linearGradient id="SVGID_1_" gradientUnits="userSpaceOnUse" x1="44" y1="814.35" x2="94.3333" y2="814.35" gradientTransform="matrix(1 0 0 1 0 -742)">
		<stop  offset="0" style="stop-color:#145B80"/>
		<stop  offset="1" style="stop-color:#00A5A6"/>
	</linearGradient>
	<path class="st0" d="M94.4,58.3H44v22.3c0,3.2,2.6,5.8,5.8,5.8h38.8c3.2,0,5.8-2.6,5.8-5.8V58.3"/>
	
		<linearGradient id="SVGID_2_" gradientUnits="userSpaceOnUse" x1="44" y1="790.7" x2="93.7" y2="790.7" gradientTransform="matrix(1 0 0 1 0 -742)">
		<stop  offset="0" style="stop-color:#145B80"/>
		<stop  offset="1" style="stop-color:#00A5A6"/>
	</linearGradient>
	<path class="st1" d="M89.9,46.5H71.7c-1.7,0-3.3-0.6-4.6-1.7l-2.4-2.1c-0.8-0.7-1.9-1.1-2.9-1.1H47.6c-1.9,0-3.6,1.6-3.6,3.6v10.6
		h49.7v-5.4C93.7,48.2,92,46.5,89.9,46.5"/>
	<g>
		
			<linearGradient id="SVGID_3_" gradientUnits="userSpaceOnUse" x1="4.7345" y1="785.4359" x2="85.1" y2="785.4359" gradientTransform="matrix(1 0 0 1 0 -742)">
			<stop  offset="0" style="stop-color:#1E3B70"/>
			<stop  offset="1" style="stop-color:#00A5A6"/>
		</linearGradient>
		<path class="st2" d="M41.1,57.6V47c0-4.6,3-8.1,7.6-8.1h14.2c2.2,0,4.3,0.7,5.9,2.1l2.4,1.9c0.4,0.4,1,0.4,1.6,0.4h12.3
			c-0.1,0-0.2-0.4-0.3-0.7c-1.7-2.9-4.3-5.2-7.4-6.4L77,34.3c-0.9-3.6-3.2-6.3-6.6-7.9c-3.3-1.6-7-1.4-10.2,0.1l-0.6,0.3l-2.9-3.7
			c-5.7-7.1-14.6-10-23.2-7.6c-8.8,2.4-14.9,9.4-16.1,18.4L17,37.2l-3,1.7C6.7,43,3.3,50.9,5.3,58.8c2,7.8,8.4,13.4,16.4,13.4H41
			v-10L41.1,57.6L41.1,57.6z"/>
	</g>
</g>
</svg>
