<svg id="Warstwa_1" data-name="Warstwa 1" xmlns="http://www.w3.org/2000/svg" xmlns:xlink="http://www.w3.org/1999/xlink" viewBox="0 0 1023 350.99"><defs><style>.cls-1{fill:url(#Gradient_bez_nazwy_6);}.cls-2{fill:#454493;}</style><linearGradient id="Gradient_bez_nazwy_6" x1="-55.42" y1="219.8" x2="179.68" y2="454.9" gradientTransform="translate(128.58 -147.64)" gradientUnits="userSpaceOnUse"><stop offset="0" stop-color="#55d9ff"/><stop offset="0.5" stop-color="#5bff6a"/><stop offset="1" stop-color="#f6ff75"/></linearGradient></defs><path class="cls-1" d="M46,280.14c-59.93-59.93-37.79-143,27.13-208s148-87.06,208-27.13,92,197.3,27.12,262.22S106,340.06,46,280.14Z"/><path class="cls-2" d="M257.77,249.46c-4.49,3.82-17.45,10.47-36.4,10.47-28.1,0-47.05-17.46-47.05-44.72,0-25.93,19-45.21,45.38-45.21,27.6,0,41.23,20.94,41.23,44.88v8.31H196.26c2.33,15.79,16.63,19.45,29.93,19.45,13,0,22.1-5.32,25.26-8.31ZM239.15,206.9c-.16-10.8-7.48-20-19.28-20-12.47,0-21.11,7.48-23.61,20Z"/><path class="cls-2" d="M394.92,257.43V131.6h38.23c37.74,0,68.32,21.77,68.32,63,0,40.06-28.59,62.83-72.3,62.83ZM433.15,236c23.27,0,43.06-11.3,43.06-41.89,0-23.94-16.29-41.06-40.06-41.06H418.53v83Z"/><path class="cls-2" d="M570.19,172.49H592v75.64c-10,8.64-22.44,11.8-38.07,11.8-22.6,0-38.56-11-38.56-32.92V172.49h21.78V222c0,16.62,9.3,20.44,19.11,20.44,7.32,0,12-2.49,14-4Z"/><path class="cls-2" d="M605.81,257.43V172.49h21.61V186c2-4.33,8.65-15.8,18.62-15.8a27.6,27.6,0,0,1,15.3,4.16l-7.49,20.45c-2.66-1.83-6.31-4.33-11.63-4.33-9.64,0-14.8,11.64-14.8,20.12v46.87Z"/><path class="cls-2" d="M736.27,249.46c-6.48,5.15-18.95,10.47-38.56,10.47-26.1,0-38.07-14.46-38.07-30.92,0-19.45,18.61-26.76,34.57-26.76,5.82,0,16.46,2,21.28,5.65v-8.65c0-7-5.15-11.8-16.79-11.8a61.06,61.06,0,0,0-23.6,5l-6.32-15.3A72.4,72.4,0,0,1,700.53,170c28.26,0,35.74,13.46,35.74,34.41Zm-20.78-25.6c-3.49-3-10.64-6.15-17.62-6.15-8.31,0-15.79,4.15-15.79,11.63,0,8.81,6.65,14.46,17.29,14.46,6.64,0,12.3-1.33,16.12-3.49Z"/><path class="cls-2" d="M750.12,131.6h22v45.05c5.15-3.33,15.46-6.65,22.27-6.65,27.93,0,40.23,21.77,40.23,44.38,0,29.76-23.11,45.55-47.21,45.55-12,0-25.93-2.66-37.24-10.31Zm22,106.88c3.49,2,7.64,3.33,15.29,3.33,14.63,0,24.27-10.14,24.27-27.6,0-13.46-7.15-26.26-21-26.26-6.31,0-14.63,3.16-18.61,7Z"/><path class="cls-2" d="M847.31,257.43V131.6h21.78V257.43Z"/><path class="cls-2" d="M282.21,223.19h21.28A70.23,70.23,0,0,1,373.64,153V131.76A91.53,91.53,0,0,0,282.21,223.19Z"/><path class="cls-2" d="M933.7,242.64h0c-13.3,0-27.6-3.66-29.92-19.45h64.66v-8.31c0-23.94-13.63-44.88-41.22-44.88-26.44,0-45.39,19.28-45.39,45.21,0,27.26,18.95,44.72,47,44.72H1011V242.64ZM927.38,187c11.8,0,19.12,9.15,19.28,20H903.78C906.27,194.43,914.91,187,927.38,187Z"/></svg>