<?xml version="1.0" encoding="utf-8"?>
<svg version="1.1" xmlns:xlink="http://www.w3.org/1999/xlink" width="44px" height="40px" xmlns="http://www.w3.org/2000/svg">
  <g transform="matrix(1 0 0 1 -885 -48 )">
    <path d="M 7 15.416666666666664  L 7 33.489583333333336  L 14 33.489583333333336  L 14 15.416666666666664  L 7 15.416666666666664  Z M 12.8046875 12.0703125  C 13.492187500000002 11.471354166666664  13.835937500000002 10.729166666666664  13.8359375 9.84375  C 13.81684027777778 8.940972222222218  13.47309027777778 8.194444444444443  12.8046875 7.604166666666665  C 12.136284722222223 7.013888888888888  11.24826388888889 6.71875  10.140625 6.71875  C 9.032986111111112 6.71875  8.130642361111112 7.013888888888888  7.43359375 7.604166666666665  C 6.73654513888889 8.194444444444443  6.388020833333333 8.940972222222218  6.388020833333333 9.84375  C 6.388020833333333 10.729166666666664  6.726996527777779 11.471354166666664  7.404947916666667 12.0703125  C 8.082899305555555 12.669270833333336  8.966145833333332 12.96875  10.0546875 12.96875  L 10.083333333333332 12.96875  C 11.210069444444446 12.96875  12.117187500000002 12.669270833333336  12.8046875 12.0703125  Z M 30.59375 23.828125  L 30.59375 33.489583333333336  L 37 33.489583333333336  L 37 23.125  C 37.2109375 20.451388888888886  36.51388888888889 18.428819444444443  35.11979166666667 17.057291666666664  C 33.72569444444445 15.68576388888889  31.8828125 15  29.591145833333332 15  C 26.993923611111114 15  24.998263888888893 16.015625  23.604166666666668 18.046875  L 23.661458333333332 18.046875  L 23.661458333333332 15.416666666666664  L 17.044270833333336 15.416666666666664  C 17.1015625 16.5625  17.1015625 22.586805555555554  17.044270833333336 33.489583333333336  L 23 33.489583333333336  L 23 23.38541666666667  C 23.661458333333332 22.725694444444446  23.728298611111114 22.23958333333333  23.861979166666668 21.92708333333333  C 24.1484375 21.319444444444446  24.578125 20.802951388888886  25.151041666666668 20.37760416666667  C 25.723958333333332 19.952256944444443  26.43055555555556 19.739583333333336  27.270833333333332 19.739583333333336  C 29.486111111111114 19.739583333333336  30.59375 21.102430555555554  30.59375 23.828125  Z M 41.57942708333333 2.200520833333335  C 43.19314236111111 3.6675347222222188  44 5.434027777777772  44 7.5  L 44 32.5  C 44 34.56597222222222  43.19314236111111 36.33246527777778  41.57942708333333 37.799479166666664  C 39.96571180555556 39.26649305555556  38.02256944444445 40  35.75 40  L 8.25 40  C 5.977430555555555 40  4.034288194444445 39.26649305555556  2.420572916666667 37.799479166666664  C 0.8068576388888887 36.33246527777778  0 34.56597222222222  0 32.5  L 0 7.5  C 0 5.434027777777772  0.8068576388888887 3.6675347222222188  2.420572916666667 2.200520833333335  C 4.034288194444445 0.733506944444442  5.977430555555555 0  8.25 0  L 35.75 0  C 38.02256944444445 0  39.96571180555556 0.733506944444442  41.57942708333333 2.200520833333335  Z " fill-rule="nonzero" fill="#00123f" stroke="none" transform="matrix(1 0 0 1 885 48 )" />
  </g>
</svg>