<?xml version="1.0" encoding="utf-8"?>
<svg version="1.1" xmlns:xlink="http://www.w3.org/1999/xlink" width="21px" height="12px" xmlns="http://www.w3.org/2000/svg">
  <g transform="matrix(1 0 0 1 -1258 -69 )">
    <path d="M 20.789579158316634 1.2371134020618553  C 20.929859719438877 1.3745704467353916  21 1.5326460481099642  21 1.7113402061855676  C 21 1.890034364261167  20.929859719438877 2.048109965635737  20.789579158316634 2.1855670103092786  L 10.983967935871743 11.79381443298969  C 10.8436873747495 11.931271477663227  10.682364729458918 12  10.5 12  C 10.317635270541084 12  10.156312625250502 11.931271477663227  10.016032064128256 11.79381443298969  L 0.21042084168336672 2.1855670103092786  C 0.07014028056112245 2.048109965635737  0 1.890034364261167  0 1.7113402061855676  C 0 1.5326460481099642  0.07014028056112245 1.3745704467353916  0.21042084168336672 1.2371134020618553  L 1.2625250501002003 0.20618556701030988  C 1.4028056112224454 0.06872852233676818  1.5641282565130263 0  1.7464929859719438 0  C 1.9288577154308622 0  2.090180360721443 0.06872852233676818  2.2304609218436875 0.20618556701030988  L 10.5 8.309278350515463  L 18.769539078156313 0.20618556701030988  C 18.90981963927856 0.06872852233676818  19.071142284569138 0  19.253507014028056 0  C 19.435871743486977 0  19.597194388777556 0.06872852233676818  19.737474949899802 0.20618556701030988  L 20.789579158316634 1.2371134020618553  Z " fill-rule="nonzero" fill="#707070" stroke="none" transform="matrix(1 0 0 1 1258 69 )" />
  </g>
</svg>