<svg id="Layer_1" data-name="Layer 1" xmlns="http://www.w3.org/2000/svg" xmlns:xlink="http://www.w3.org/1999/xlink" viewBox="0 0 411.55 140.28"><defs><style>.cls-1{fill:#1f3c6f;}.cls-2{fill:url(#linear-gradient);}.cls-3{fill:#fff;}</style><linearGradient id="linear-gradient" x1="9.63" y1="69.02" x2="193.3" y2="69.02" gradientUnits="userSpaceOnUse"><stop offset="0.1" stop-color="#1f3c6f"/><stop offset="1" stop-color="#00a6a6"/></linearGradient></defs><path class="cls-1" d="M218.62,110.35V80.92c0-7.44,4.48-15.47,15.06-15.47s15,8,15,15.47V84.3H243V80.92c0-4.23-2.45-9.89-9.3-9.89s-9.31,5.66-9.31,9.89v29.43c0,4.23,2.46,9.9,9.31,9.9s9.3-5.67,9.3-9.9V107h5.75v3.38c0,7.44-4.48,15.48-15,15.48S218.62,117.79,218.62,110.35Z"/><path class="cls-1" d="M257.52,66.54h5.75v52.61h24.36v5.58H257.52Z"/><path class="cls-1" d="M291.35,110.35V80.92c0-7.44,4.48-15.47,15-15.47s15.05,8,15.05,15.47v29.43c0,7.44-4.48,15.48-15.05,15.48S291.35,117.79,291.35,110.35Zm24.36-29.43c0-4.23-2.46-9.89-9.31-9.89s-9.3,5.66-9.3,9.89v29.43c0,4.23,2.45,9.9,9.3,9.9s9.31-5.67,9.31-9.9Z"/><path class="cls-1" d="M336,66.54v43.81c0,4.23,2.45,9.9,9.3,9.9s9.3-5.67,9.3-9.9V66.54h5.75v43.81c0,7.44-4.48,15.48-15.05,15.48s-15.05-8-15.05-15.48V66.54Z"/><path class="cls-1" d="M369.15,66.54h13.78c11.42,0,16.32,7.7,16.32,16.41v25.46c0,8.45-4.9,16.32-16.32,16.32H369.15Zm5.75,52.61h8.2c8.8,0,10.4-6.52,10.4-11v-25c0-4.48-1.6-11.07-10.4-11.07h-8.2Z"/><path class="cls-1" d="M220.72,17.93h8.22c6.44,0,9.83,4,9.83,9.82,0,4.59-2.15,7.73-5.59,9.08l5.64,15.41h-3.74l-5.29-14.66h-5.68V52.24h-3.39Zm3.39,16.35H229c4.24,0,6.34-2.59,6.34-6.53s-2.1-6.53-6.34-6.53h-4.93Z"/><path class="cls-1" d="M243.66,17.93h18.1v3.29H247.05V33.44h13.16v3.29H247.05V48.94h14.71v3.3h-18.1Z"/><path class="cls-1" d="M266.6,43.76V26.41c0-4.39,2.64-9.13,8.87-9.13s8.88,4.74,8.88,9.13v2H281v-2c0-2.5-1.45-5.84-5.49-5.84S270,23.91,270,26.41V43.76c0,2.49,1.44,5.83,5.48,5.83S281,46.25,281,43.76v-2h3.39v2c0,4.39-2.64,9.12-8.88,9.12S266.6,48.15,266.6,43.76Z"/><path class="cls-1" d="M292.18,17.93l6.24,16.55,6.23-16.55h3.74l-8.28,21.84V52.24h-3.39V39.77l-8.28-21.84Z"/><path class="cls-1" d="M312.48,43.76V26.41c0-4.39,2.64-9.13,8.87-9.13s8.88,4.74,8.88,9.13v2h-3.39v-2c0-2.5-1.45-5.84-5.49-5.84s-5.48,3.34-5.48,5.84V43.76c0,2.49,1.45,5.83,5.48,5.83s5.49-3.34,5.49-5.83v-2h3.39v2c0,4.39-2.64,9.12-8.88,9.12S312.48,48.15,312.48,43.76Z"/><path class="cls-1" d="M335.42,17.93h3.39v31h14.36v3.3H335.42Z"/><path class="cls-1" d="M358.36,17.93h18.1v3.29H361.75V33.44h13.16v3.29H361.75V48.94h14.71v3.3h-18.1Z"/><path class="cls-1" d="M382.3,17.93h8.13c6.73,0,9.62,4.54,9.62,9.67v15c0,5-2.89,9.63-9.62,9.63H382.3Zm3.39,31h4.84c5.18,0,6.13-3.83,6.13-6.48V27.75c0-2.64-1-6.53-6.13-6.53h-4.84Z"/><path class="cls-2" d="M40.3,128.88s-26.68-8-29.67-28.67c0,0-9.69-35.46,31.31-43.16,0,0-1.15-19.15,10.74-22.43,0,0,14.74-6.95,23.15,3.66,0,0,1.22-12.7,15.44-22.13,0,0,17.49-13.53,38.81-8.2,0,0,44.68,5.74,41.81,52.88,0,0,31.57,14.76,18,46.33a43,43,0,0,1-30.75,24.18Z"/><path class="cls-3" d="M108.58,122.12s-35.34,5.07-45.84-29.86l11.48-2L49.72,65.51l-9.58,36.33L48,97.33s6.76,16.34,18.58,21.41C66.61,118.74,81.54,132,108.58,122.12Z"/><path class="cls-3" d="M64.39,69.66s7.19-42,53-38.58V21.22L142.68,47.7,109.45,57l5.07-9.58S85.51,35.59,64.39,69.66Z"/><path class="cls-3" d="M150.22,48.94s16.9,27.6-8.73,53.23l-6-11-13.65,33.23L159,119.07l-6.76-5.91s11.84-14.65,13-29.57C165.15,83.59,165.15,62.46,150.22,48.94Z"/></svg>