<svg id="Layer_1" data-name="Layer 1" xmlns="http://www.w3.org/2000/svg" xmlns:xlink="http://www.w3.org/1999/xlink" viewBox="0 0 359.52 248.04"><defs><style>.cls-1{fill:url(#linear-gradient);}.cls-2{fill:#fff;}</style><linearGradient id="linear-gradient" x1="22.28" y1="122.48" x2="330.11" y2="122.48" gradientUnits="userSpaceOnUse"><stop offset="0.1" stop-color="#1f3c6f"/><stop offset="1" stop-color="#00a6a6"/></linearGradient></defs><path class="cls-1" d="M73.68,222.8S29,209.35,24,174.74c0,0-16.23-59.43,52.48-72.33,0,0-1.92-32.09,18-37.59,0,0,24.69-11.66,38.79,6.14,0,0,2.05-21.3,25.87-37.11,0,0,29.32-22.67,65-13.74,0,0,74.9,9.62,70.09,88.64,0,0,52.9,24.73,30.23,77.63,0,0-13.06,33-51.53,40.54Z"/><path class="cls-2" d="M188.11,211.46s-59.23,8.49-76.81-50l19.23-3.3L89.46,116.58l-16,60.89,13.21-7.55S98,197.3,117.78,205.79C117.78,205.79,142.8,228,188.11,211.46Z"/><path class="cls-2" d="M114.05,123.55s12.06-70.33,88.87-64.67V42.36l42.35,44.37-55.7,15.58,8.5-16S149.45,66.43,114.05,123.55Z"/><path class="cls-2" d="M257.91,88.82s28.32,46.26-14.63,89.21l-10-18.41-22.89,55.7,62.17-9-11.33-9.91S281,171.9,282.93,146.88C282.93,146.88,282.93,111.48,257.91,88.82Z"/></svg>