<?xml version="1.0" encoding="utf-8"?>
<!-- Generator: Adobe Illustrator 25.2.3, SVG Export Plug-In . SVG Version: 6.00 Build 0)  -->
<svg version="1.1" id="Layer_1" xmlns="http://www.w3.org/2000/svg" xmlns:xlink="http://www.w3.org/1999/xlink" x="0px" y="0px"
	 viewBox="0 0 100 100" style="enable-background:new 0 0 100 100;" xml:space="preserve">
<style type="text/css">
	.st0{fill:url(#SVGID_1_);}
	.st1{fill:url(#SVGID_2_);}
	.st2{fill:url(#SVGID_3_);}
</style>
<g>
	
		<linearGradient id="SVGID_1_" gradientUnits="userSpaceOnUse" x1="15.7" y1="73.5898" x2="84.3" y2="73.5898" gradientTransform="matrix(1 0 0 -1 0 99.8898)">
		<stop  offset="0" style="stop-color:#1E3B70"/>
		<stop  offset="1" style="stop-color:#00A5A6"/>
	</linearGradient>
	<path class="st0" d="M80,15.7H20c-2.4,0-4.3,1.9-4.3,4.3v12.6c0,2.4,1.9,4.3,4.3,4.3h60c2.4,0,4.3-1.9,4.3-4.3V20
		C84.3,17.6,82.4,15.7,80,15.7z M26.7,30.7c-2.4,0-4.4-2-4.4-4.4s2-4.4,4.4-4.4s4.4,2,4.4,4.4C31.3,28.7,29.3,30.7,26.7,30.7z
		 M38.1,30.7c-2.4,0-4.4-2-4.4-4.4s2-4.4,4.4-4.4s4.4,2,4.4,4.4C42.7,28.7,40.7,30.7,38.1,30.7z M49.6,30.7c-2.4,0-4.4-2-4.4-4.4
		s2-4.4,4.4-4.4s4.4,2,4.4,4.4C54.1,28.7,52.1,30.7,49.6,30.7z M76.3,27.7h-16c-0.9,0-1.4-0.6-1.4-1.4s0.6-1.4,1.4-1.4h16
		c0.9,0,1.4,0.6,1.4,1.4S77,27.7,76.3,27.7z"/>
	
		<linearGradient id="SVGID_2_" gradientUnits="userSpaceOnUse" x1="15.7" y1="49.8898" x2="84.3" y2="49.8898" gradientTransform="matrix(1 0 0 -1 0 99.8898)">
		<stop  offset="0" style="stop-color:#1E3B70"/>
		<stop  offset="1" style="stop-color:#00A5A6"/>
	</linearGradient>
	<path class="st1" d="M80,39.4H20c-2.4,0-4.3,1.9-4.3,4.3v12.6c0,2.4,1.9,4.3,4.3,4.3h60c2.4,0,4.3-1.9,4.3-4.3V43.7
		C84.3,41.3,82.4,39.4,80,39.4z M26.7,54.4c-2.4,0-4.4-2-4.4-4.4s2-4.4,4.4-4.4s4.4,2,4.4,4.4S29.3,54.4,26.7,54.4z M38.1,54.4
		c-2.4,0-4.4-2-4.4-4.4s2-4.4,4.4-4.4s4.4,2,4.4,4.4C42.6,52.4,40.7,54.4,38.1,54.4z M49.6,54.4c-2.4,0-4.4-2-4.4-4.4s2-4.4,4.4-4.4
		s4.4,2,4.4,4.4S52.1,54.4,49.6,54.4z M76.3,51.4h-16c-0.9,0-1.4-0.6-1.4-1.4c0-0.9,0.6-1.4,1.4-1.4h16c0.9,0,1.4,0.6,1.4,1.4
		C77.7,50.9,77,51.4,76.3,51.4z"/>
	
		<linearGradient id="SVGID_3_" gradientUnits="userSpaceOnUse" x1="15.7" y1="26.1898" x2="84.3" y2="26.1898" gradientTransform="matrix(1 0 0 -1 0 99.8898)">
		<stop  offset="0" style="stop-color:#1E3B70"/>
		<stop  offset="1" style="stop-color:#00A5A6"/>
	</linearGradient>
	<path class="st2" d="M80,63.1H20c-2.4,0-4.3,1.9-4.3,4.3V80c0,2.3,1.9,4.3,4.3,4.3h60c2.4,0,4.3-2,4.3-4.3V67.4
		C84.3,65,82.4,63.1,80,63.1z M27.4,78.1c-2.4,0-4.4-2-4.4-4.4s2-4.4,4.4-4.4s4.4,2,4.4,4.4C31.9,76.1,30,78.1,27.4,78.1z
		 M38.9,78.1c-2.4,0-4.4-2-4.4-4.4s2-4.4,4.4-4.4s4.4,2,4.4,4.4C43.3,76.1,41.4,78.1,38.9,78.1z M50.3,78.1c-2.4,0-4.4-2-4.4-4.4
		s2-4.4,4.4-4.4s4.4,2,4.4,4.4S52.9,78.1,50.3,78.1z M76.3,75.1h-16c-0.9,0-1.4-0.6-1.4-1.4s0.6-1.4,1.4-1.4h16
		c0.9,0,1.4,0.6,1.4,1.4S77,75.1,76.3,75.1z"/>
</g>
</svg>
